name kv08_filtered_grf.mot
datacolumns 37
datarows 5
range 0.849000 0.851000
endheader
time	1_ground_force_vx	1_ground_force_vy	1_ground_force_vz	1_ground_force_px	1_ground_force_py	1_ground_force_pz	1_ground_torque_x	1_ground_torque_y	1_ground_torque_z	2_ground_force_vx	2_ground_force_vy	2_ground_force_vz	2_ground_force_px	2_ground_force_py	2_ground_force_pz	2_ground_torque_x	2_ground_torque_y	2_ground_torque_z	3_ground_force_vx	3_ground_force_vy	3_ground_force_vz	3_ground_force_px	3_ground_force_py	3_ground_force_pz	3_ground_torque_x	3_ground_torque_y	3_ground_torque_z	4_ground_force_vx	4_ground_force_vy	4_ground_force_vz	4_ground_force_px	4_ground_force_py	4_ground_force_pz	4_ground_torque_x	4_ground_torque_y	4_ground_torque_z
            0.849000	            0.000905	           -0.017131	           -0.005145	            0.450000	            0.000000	            0.900000	           -0.013094	           -0.002421	            0.004788	            0.001161	           -0.009895	           -0.004037	           -0.183930	            0.000000	            0.159135	           -0.002027	            0.000006	           -0.001348	            1.594829	           -0.134646	           -1.351028	            0.386549	            0.970601	            1.072357	           -0.016482	            0.029254	            0.018017	            0.360032	            0.001299	           -0.469315	           -0.369173	            0.969742	            1.107963	           -0.012736	           -0.005706	           -0.052059
            0.849500	            0.000805	           -0.015664	           -0.003941	            0.450000	            0.000000	            0.900000	           -0.011987	           -0.001999	            0.004383	            0.001004	           -0.008974	           -0.003383	           -0.183930	            0.000000	            0.159135	           -0.001816	            0.000005	           -0.001206	            1.608301	           -0.121078	           -1.370980	            0.386553	            0.970596	            1.072358	           -0.016556	            0.029141	            0.017196	            0.332018	            0.022122	           -0.467764	           -0.369168	            0.969732	            1.107969	           -0.012632	           -0.005665	           -0.051257
            0.850000	            0.000695	           -0.014037	           -0.002650	            0.450000	            0.000000	            0.900000	           -0.010758	           -0.001545	            0.003934	            0.000833	           -0.007956	           -0.002675	           -0.183930	            0.000000	            0.159135	           -0.001584	            0.000004	           -0.001049	            1.621773	           -0.106948	           -1.389893	            0.386556	            0.970591	            1.072360	           -0.016623	            0.029025	            0.016352	            0.302885	            0.043571	           -0.465830	           -0.369163	            0.969722	            1.107975	           -0.012512	           -0.005614	           -0.050446
            0.850500	            0.000575	           -0.012249	           -0.001275	            0.450000	            0.000000	            0.900000	           -0.009407	           -0.001058	            0.003439	            0.000648	           -0.006843	           -0.001915	           -0.183930	            0.000000	            0.159135	           -0.001331	            0.000004	           -0.000879	            1.635191	           -0.092276	           -1.407701	            0.386560	            0.970585	            1.072360	           -0.016681	            0.028907	            0.015486	            0.272703	            0.065621	           -0.463525	           -0.369158	            0.969710	            1.107980	           -0.012379	           -0.005553	           -0.049625
            0.851000	            0.000446	           -0.010301	            0.000182	            0.450000	            0.000000	            0.900000	           -0.007933	           -0.000538	            0.002901	            0.000450	           -0.005633	           -0.001103	           -0.183930	            0.000000	            0.159135	           -0.001058	            0.000003	           -0.000695	            1.648492	           -0.077083	           -1.424360	            0.386564	            0.970580	            1.072361	           -0.016732	            0.028787	            0.014601	            0.241563	            0.088252	           -0.460849	           -0.369152	            0.969698	            1.107986	           -0.012231	           -0.005479	           -0.048796
